<svg width="400" height="400" viewBox="0 0 400 400" fill="none" xmlns="http://www.w3.org/2000/svg">
<g clip-path="url(#clip0_175_255)">
<rect width="400" height="400" rx="54" fill="#0B0E14"/>
<path d="M335.043 235.172L274.671 130.353C261.495 108.524 229.045 108.328 216.262 131.337L152.939 240.285C141.139 260.344 155.692 285.319 179.487 285.319H306.725C330.521 285.516 348.417 259.557 335.043 235.172Z" fill="#003087"/>
<path d="M247.923 243.432L244.187 236.942C240.647 230.846 232.977 217.866 232.977 217.866L181.846 128.977C168.67 109.311 137.205 107.541 124.029 132.517L64.4419 235.565C52.0525 257.198 66.8018 285.32 93.5473 285.516H219.998H273.881H305.937C273.291 285.713 262.869 268.604 247.923 243.432Z" fill="#1877F2"/>
<path d="M247.923 243.038L244.187 236.548C240.647 230.452 232.977 217.472 232.977 217.472L199.939 159.262L152.544 240.285C140.745 260.344 155.298 285.319 179.093 285.319H219.801H273.686H305.938C273.096 285.123 262.87 268.407 247.923 243.038Z" fill="url(#paint0_linear_175_255)"/>
</g>
<defs>
<linearGradient id="paint0_linear_175_255" x1="135.629" y1="203.564" x2="282.546" y2="257.854" gradientUnits="userSpaceOnUse">
<stop stop-color="#003087" stop-opacity="0"/>
<stop offset="1" stop-color="#003087"/>
</linearGradient>
<clipPath id="clip0_175_255">
<rect width="400" height="400" fill="white"/>
</clipPath>
</defs>
</svg>
